<svg height='23px' width='23px'  fill="#000000" xmlns="http://www.w3.org/2000/svg" xmlns:xlink="http://www.w3.org/1999/xlink" version="1.1" x="0px" y="0px" viewBox="0 0 100 100" style="enable-background:new 0 0 100 100;" xml:space="preserve"><path d="M93.2,70.1L61.3,16.5C59,12.3,54.7,9.9,50,9.9s-9,2.4-11.4,6.5L6.8,70.1c-2.5,4.1-2.5,9.2-0.1,13.3  c2.4,4.1,6.7,6.7,11.6,6.7h63.5c4.9,0,9.2-2.5,11.6-6.7C95.8,79.3,95.8,74.2,93.2,70.1z M54.3,72c0,2.5-1.9,4.4-4.4,4.4  s-4.4-1.9-4.4-4.4v-1.5c0-2.5,1.9-4.4,4.4-4.4s4.5,1.9,4.4,4.4V72z M54.3,59.2c0,2.5-1.9,4.4-4.4,4.4s-4.4-1.9-4.4-4.4V35.5  c0-2.5,1.9-4.4,4.4-4.4s4.5,2.1,4.4,4.5V59.2z"></path></svg>