<svg id="Layer_1" data-name="Layer 1" xmlns="http://www.w3.org/2000/svg" viewBox="0 0 800 200"><title>Artboard 1</title><rect width="800" height="200" style="fill:#1da1f2"/><path d="M593.77,409.22c217,0,335.65-179.77,335.65-335.65,0-5.11-.1-10.19-.34-15.25A240,240,0,0,0,987.94-2.76a235.48,235.48,0,0,1-67.75,18.57,118.38,118.38,0,0,0,51.87-65.26,236.41,236.41,0,0,1-74.91,28.63,118.07,118.07,0,0,0-201,107.59A334.92,334.92,0,0,1,453-36.48a117.55,117.55,0,0,0-16,59.29,117.88,117.88,0,0,0,52.5,98.2,117.1,117.1,0,0,1-53.43-14.76c0,.49,0,1,0,1.5a118,118,0,0,0,94.64,115.65,117.79,117.79,0,0,1-53.27,2A118.1,118.1,0,0,0,587.6,307.37a236.72,236.72,0,0,1-146.52,50.5,240.15,240.15,0,0,1-28.14-1.63,334,334,0,0,0,180.83,53" style="fill:#71c9f7"/><path d="M103.54,126.16c24.3,0,37.58-20.13,37.58-37.58,0-.57,0-1.14,0-1.71A26.88,26.88,0,0,0,147.68,80a26.37,26.37,0,0,1-7.59,2.08,13.25,13.25,0,0,0,5.81-7.31A26.47,26.47,0,0,1,137.51,78a13.22,13.22,0,0,0-22.51,12,37.5,37.5,0,0,1-27.23-13.8,13.22,13.22,0,0,0,4.09,17.63,13.11,13.11,0,0,1-6-1.65c0,.06,0,.11,0,.17a13.21,13.21,0,0,0,10.6,12.95,13.19,13.19,0,0,1-6,.23,13.22,13.22,0,0,0,12.34,9.17,26.51,26.51,0,0,1-16.41,5.65,26.89,26.89,0,0,1-3.15-.18,37.4,37.4,0,0,0,20.25,5.93" style="fill:#fff"/><path d="M196.21,81.06v4.75H183.79v5.94h10.76v4.39H183.79v10.62h-5.65V81.06Z" style="fill:#fff"/><path d="M199.23,88.68a12.85,12.85,0,0,1,2.48-4.3,11.35,11.35,0,0,1,4-2.88,14.07,14.07,0,0,1,10.64,0,11.4,11.4,0,0,1,4,2.88,12.83,12.83,0,0,1,2.48,4.3,16.06,16.06,0,0,1,.86,5.35,15.52,15.52,0,0,1-.86,5.24,12.51,12.51,0,0,1-2.48,4.23,11.41,11.41,0,0,1-4,2.83,14.3,14.3,0,0,1-10.64,0,11.37,11.37,0,0,1-4-2.83,12.52,12.52,0,0,1-2.48-4.23,15.52,15.52,0,0,1-.86-5.24A16.06,16.06,0,0,1,199.23,88.68Zm5.17,8.5a8.5,8.5,0,0,0,1.21,2.75,6.17,6.17,0,0,0,2.16,2,7.48,7.48,0,0,0,6.48,0,6.17,6.17,0,0,0,2.16-2,8.5,8.5,0,0,0,1.21-2.75A13.09,13.09,0,0,0,218,94a14.07,14.07,0,0,0-.38-3.28,8.68,8.68,0,0,0-1.21-2.83,6.12,6.12,0,0,0-2.16-2,7.49,7.49,0,0,0-6.48,0,6.12,6.12,0,0,0-2.16,2,8.68,8.68,0,0,0-1.21,2.83A14.07,14.07,0,0,0,204,94,13.09,13.09,0,0,0,204.4,97.17Z" style="fill:#fff"/><path d="M233.14,81.06v21h12.53v4.75H227.49V81.06Z" style="fill:#fff"/><path d="M254.49,81.06v21H267v4.75H248.84V81.06Z" style="fill:#fff"/><path d="M269.93,88.68a12.85,12.85,0,0,1,2.48-4.3,11.35,11.35,0,0,1,4-2.88,14.07,14.07,0,0,1,10.64,0,11.4,11.4,0,0,1,4,2.88,12.83,12.83,0,0,1,2.48,4.3,16.06,16.06,0,0,1,.86,5.35,15.52,15.52,0,0,1-.86,5.24,12.51,12.51,0,0,1-2.48,4.23,11.41,11.41,0,0,1-4,2.83,14.3,14.3,0,0,1-10.64,0,11.37,11.37,0,0,1-4-2.83,12.52,12.52,0,0,1-2.48-4.23,15.52,15.52,0,0,1-.86-5.24A16.06,16.06,0,0,1,269.93,88.68Zm5.17,8.5a8.5,8.5,0,0,0,1.21,2.75,6.17,6.17,0,0,0,2.16,2,7.48,7.48,0,0,0,6.48,0,6.17,6.17,0,0,0,2.16-2,8.5,8.5,0,0,0,1.21-2.75,13.09,13.09,0,0,0,.38-3.15,14.07,14.07,0,0,0-.38-3.28,8.68,8.68,0,0,0-1.21-2.83,6.12,6.12,0,0,0-2.16-2,7.49,7.49,0,0,0-6.48,0,6.12,6.12,0,0,0-2.16,2,8.68,8.68,0,0,0-1.21,2.83,14.07,14.07,0,0,0-.38,3.28A13.09,13.09,0,0,0,275.1,97.17Z" style="fill:#fff"/><path d="M317.06,106.77l-4.36-17.5h-.07l-4.28,17.5h-5.72l-6.8-25.7h5.65l4.07,17.5h.07l4.46-17.5h5.29l4.39,17.71h.07L324,81.06h5.54l-6.91,25.7Z" style="fill:#fff"/><path d="M361.08,104.81q-2.92,2.54-8.06,2.54t-8.08-2.52q-2.86-2.52-2.86-7.78v-16h5.65V97a11.59,11.59,0,0,0,.18,2.05,4,4,0,0,0,2.36,3,6.51,6.51,0,0,0,2.75.49q3,0,4.18-1.35A6.43,6.43,0,0,0,358.35,97v-16H364V97Q364,102.27,361.08,104.81Z" style="fill:#fff"/><path d="M373.18,100.43a4.08,4.08,0,0,0,1.24,1.46,5.37,5.37,0,0,0,1.82.83,8.61,8.61,0,0,0,2.16.27,11.27,11.27,0,0,0,1.62-.13,5.63,5.63,0,0,0,1.62-.49,3.54,3.54,0,0,0,1.26-1,2.48,2.48,0,0,0,.5-1.6,2.26,2.26,0,0,0-.67-1.69A5.29,5.29,0,0,0,381,97a17.42,17.42,0,0,0-2.45-.76q-1.37-.32-2.77-.72a24.74,24.74,0,0,1-2.81-.88,9.61,9.61,0,0,1-2.45-1.35,6.35,6.35,0,0,1-1.75-2.07,6.28,6.28,0,0,1-.67-3,6.72,6.72,0,0,1,.85-3.44,7.65,7.65,0,0,1,2.21-2.43,9.67,9.67,0,0,1,3.1-1.44,13.19,13.19,0,0,1,3.46-.47,16.37,16.37,0,0,1,3.87.45,9.69,9.69,0,0,1,3.29,1.46,7.39,7.39,0,0,1,2.29,2.57,7.9,7.9,0,0,1,.85,3.8h-5.47a4.56,4.56,0,0,0-.49-1.91,3.18,3.18,0,0,0-1.1-1.19,4.66,4.66,0,0,0-1.57-.61,9.71,9.71,0,0,0-1.93-.18,6.64,6.64,0,0,0-1.37.14,3.64,3.64,0,0,0-1.24.5,3.13,3.13,0,0,0-.92.9,2.42,2.42,0,0,0-.36,1.37,2.3,2.3,0,0,0,.29,1.22,2.56,2.56,0,0,0,1.13.86,14.37,14.37,0,0,0,2.34.79l3.91,1q.72.15,2,.52a9.59,9.59,0,0,1,2.54,1.21A7.67,7.67,0,0,1,388,95.59a6.3,6.3,0,0,1,.92,3.55,7.86,7.86,0,0,1-.68,3.28,7.11,7.11,0,0,1-2,2.61,9.77,9.77,0,0,1-3.35,1.71,15.82,15.82,0,0,1-4.63.61,16.25,16.25,0,0,1-4.12-.52,10.35,10.35,0,0,1-3.53-1.64,8.07,8.07,0,0,1-2.43-2.84,8.49,8.49,0,0,1-.86-4.1h5.47A4.71,4.71,0,0,0,373.18,100.43Z" style="fill:#fff"/><path d="M402,88.68a12.84,12.84,0,0,1,2.48-4.3,11.35,11.35,0,0,1,4-2.88,14.07,14.07,0,0,1,10.64,0,11.4,11.4,0,0,1,4,2.88,12.83,12.83,0,0,1,2.48,4.3,16.06,16.06,0,0,1,.86,5.35,15.52,15.52,0,0,1-.86,5.24,12.5,12.5,0,0,1-2.48,4.23,11.41,11.41,0,0,1-4,2.83,14.3,14.3,0,0,1-10.64,0,11.36,11.36,0,0,1-4-2.83A12.52,12.52,0,0,1,402,99.26a15.52,15.52,0,0,1-.86-5.24A16.06,16.06,0,0,1,402,88.68Zm5.17,8.5a8.51,8.51,0,0,0,1.21,2.75,6.17,6.17,0,0,0,2.16,2,7.48,7.48,0,0,0,6.48,0,6.17,6.17,0,0,0,2.16-2,8.49,8.49,0,0,0,1.21-2.75,13.09,13.09,0,0,0,.38-3.15,14.07,14.07,0,0,0-.38-3.28,8.66,8.66,0,0,0-1.21-2.83,6.12,6.12,0,0,0-2.16-2,7.49,7.49,0,0,0-6.48,0,6.12,6.12,0,0,0-2.16,2,8.69,8.69,0,0,0-1.21,2.83,14.07,14.07,0,0,0-.38,3.28A13.09,13.09,0,0,0,407.15,97.17Z" style="fill:#fff"/><path d="M435.86,81.06l10.73,17.24h.07V81.06h5.29v25.7H446.3L435.6,89.56h-.07v17.21h-5.29V81.06Z" style="fill:#fff"/><path d="M464.91,85.82V81.06H486v4.75h-7.7v21h-5.65v-21Z" style="fill:#fff"/><path d="M507.78,106.77l-4.36-17.5h-.07l-4.28,17.5h-5.72l-6.8-25.7h5.65l4.07,17.5h.07l4.46-17.5h5.29l4.39,17.71h.07l4.21-17.71h5.54l-6.91,25.7Z" style="fill:#fff"/><path d="M528.55,81.06v25.7H522.9V81.06Z" style="fill:#fff"/><path d="M531.51,85.82V81.06h21.06v4.75h-7.7v21h-5.65v-21Z" style="fill:#fff"/><path d="M553.5,85.82V81.06h21.06v4.75h-7.7v21h-5.65v-21Z" style="fill:#fff"/><path d="M596.74,81.06v4.75H583.17v5.51h12.46v4.39H583.17V102H597v4.75H577.51V81.06Z" style="fill:#fff"/><path d="M614.7,81.06a8.27,8.27,0,0,1,3.11.56,7.18,7.18,0,0,1,2.38,1.53,6.64,6.64,0,0,1,1.51,2.25,7.22,7.22,0,0,1,.52,2.75,7.73,7.73,0,0,1-1,3.92,6,6,0,0,1-3.11,2.52v.07a4.37,4.37,0,0,1,1.73.88A4.9,4.9,0,0,1,621,97a6.56,6.56,0,0,1,.63,1.78,15.62,15.62,0,0,1,.27,1.94q0,.61.07,1.44t.13,1.69a11.18,11.18,0,0,0,.29,1.64,3.76,3.76,0,0,0,.59,1.31h-5.65a10,10,0,0,1-.58-2.92q-.11-1.69-.32-3.24a5.11,5.11,0,0,0-1.22-3,4.21,4.21,0,0,0-3.06-.94h-5.65v10h-5.65V81.06Zm-2,11.63a4.28,4.28,0,0,0,2.92-.86,3.59,3.59,0,0,0,1-2.81,3.43,3.43,0,0,0-1-2.72,4.34,4.34,0,0,0-2.92-.85h-6.19v7.24Z" style="fill:#fff"/><path d="M294.71,158.64a8.64,8.64,0,0,0-.21,1.83,2.62,2.62,0,0,0,.34,1.4,1.19,1.19,0,0,0,1.1.55,6.77,6.77,0,0,0,3.61-1.15,10.94,10.94,0,0,0,3.23-3.23,18.75,18.75,0,0,0,2.29-5,23.08,23.08,0,0,0-.89-15.26,19.1,19.1,0,0,0-4.89-6.54,20.89,20.89,0,0,0-7.31-4,29.31,29.31,0,0,0-9.05-1.36,24.9,24.9,0,0,0-9.9,1.91,22.34,22.34,0,0,0-7.61,5.27,23.24,23.24,0,0,0-4.84,8,28.74,28.74,0,0,0-1.7,10,26.46,26.46,0,0,0,1.87,10.16,23.27,23.27,0,0,0,5.18,7.82,22.85,22.85,0,0,0,7.95,5.06A27.79,27.79,0,0,0,284,175.86,28.29,28.29,0,0,0,294.12,174a22.73,22.73,0,0,0,8.12-5.14h7.14A29.23,29.23,0,0,1,298.24,179a31.65,31.65,0,0,1-14.79,3.53,34,34,0,0,1-12.75-2.38,32.31,32.31,0,0,1-10.41-6.63,31.84,31.84,0,0,1-7-35.23,31.15,31.15,0,0,1,7-10.07,33.29,33.29,0,0,1,10.29-6.71A31.91,31.91,0,0,1,283,119.08a33.58,33.58,0,0,1,11.14,1.87,30.58,30.58,0,0,1,9.43,5.23,25.6,25.6,0,0,1,6.54,8.16A23,23,0,0,1,312.6,145a24.85,24.85,0,0,1-2.34,11.22,25.79,25.79,0,0,1-5.61,7.65,23.3,23.3,0,0,1-6.63,4.38,15,15,0,0,1-5.4,1.4,6.68,6.68,0,0,1-4.38-1.36,4.84,4.84,0,0,1-1.83-3.49h-.17a9.38,9.38,0,0,1-4,3.74,12,12,0,0,1-10.33,0,13.6,13.6,0,0,1-4.25-3.15,15.18,15.18,0,0,1-2.89-4.63,14.84,14.84,0,0,1-1.06-5.61A24.6,24.6,0,0,1,265,147.3a22.91,22.91,0,0,1,3.74-7,18.94,18.94,0,0,1,5.87-4.93,15.69,15.69,0,0,1,7.61-1.87,13.5,13.5,0,0,1,5.61,1.32,8.62,8.62,0,0,1,4.33,4.63l1.36-4.59h7l-5.36,21.93Q294.92,157.67,294.71,158.64Zm-20.48.93a6.08,6.08,0,0,0,4.8,2.08,7.8,7.8,0,0,0,4.21-1.19,12.41,12.41,0,0,0,3.32-3,14,14,0,0,0,2.17-4.12,14.2,14.2,0,0,0,.76-4.5,7.28,7.28,0,0,0-1.91-5.19,6.12,6.12,0,0,0-4.63-2,8.25,8.25,0,0,0-4.25,1.15,11.62,11.62,0,0,0-3.36,3,14.25,14.25,0,0,0-2.17,4,13.22,13.22,0,0,0-.77,4.33A8,8,0,0,0,274.23,159.58Z" style="fill:#71c9f7"/><path d="M315.22,136.23v12.82l13-12.82h4.43L321.85,146.6l11.27,15.34h-4.32l-9.29-13-4.28,4v9H311.8v-25.7Z" style="fill:#fff"/><path d="M348.49,160.75a8.45,8.45,0,0,1-5.26,1.58,9.55,9.55,0,0,1-3.87-.72,7.61,7.61,0,0,1-2.75-2,8.56,8.56,0,0,1-1.67-3.1,14.91,14.91,0,0,1-.63-3.92,11.21,11.21,0,0,1,.65-3.89,9.28,9.28,0,0,1,1.82-3.06,8.24,8.24,0,0,1,2.77-2,8.47,8.47,0,0,1,3.51-.72,7.63,7.63,0,0,1,4.12,1,8.15,8.15,0,0,1,2.63,2.61,10.34,10.34,0,0,1,1.37,3.46,14.83,14.83,0,0,1,.31,3.56H337.54a7.36,7.36,0,0,0,.29,2.32,5.24,5.24,0,0,0,1,1.94,5.13,5.13,0,0,0,1.84,1.35,6.32,6.32,0,0,0,2.63.5,5.29,5.29,0,0,0,3.19-.9,4.35,4.35,0,0,0,1.64-2.74h3A7.44,7.44,0,0,1,348.49,160.75Zm-.74-12a5.21,5.21,0,0,0-4.88-3.2,5.32,5.32,0,0,0-2.14.41,4.94,4.94,0,0,0-1.64,1.13,5.43,5.43,0,0,0-1.08,1.67,6.37,6.37,0,0,0-.47,2h10.69A6.28,6.28,0,0,0,347.75,148.8Z" style="fill:#fff"/><path d="M357.41,143.33v3.92h.07a8.29,8.29,0,0,1,2.74-3.35,6.88,6.88,0,0,1,4.1-1v3.24a8.66,8.66,0,0,0-3.13.5,4.94,4.94,0,0,0-2.09,1.48,6.1,6.1,0,0,0-1.15,2.36,12.71,12.71,0,0,0-.36,3.19v8.28h-3.06V143.33Z" style="fill:#fff"/><path d="M370.16,143.33v3h.07a6.44,6.44,0,0,1,6-3.38,8.08,8.08,0,0,1,3.06.5,5,5,0,0,1,2,1.4,5.21,5.21,0,0,1,1.06,2.14,11.51,11.51,0,0,1,.31,2.75v12.24h-3.06v-12.6a3.7,3.7,0,0,0-1-2.74,3.75,3.75,0,0,0-2.77-1,6.24,6.24,0,0,0-2.43.43,4.56,4.56,0,0,0-1.71,1.22,5.27,5.27,0,0,0-1,1.85,7.53,7.53,0,0,0-.34,2.32v10.51h-3.06V143.33Z" style="fill:#fff"/><path d="M385.06,139.11v-2.88h20.56v2.88H397v22.82h-3.42V139.11Z" style="fill:#fff"/><path d="M407.42,143.33v3.92h.07a8.29,8.29,0,0,1,2.74-3.35,6.88,6.88,0,0,1,4.1-1v3.24a8.66,8.66,0,0,0-3.13.5,4.93,4.93,0,0,0-2.09,1.48,6.1,6.1,0,0,0-1.15,2.36,12.71,12.71,0,0,0-.36,3.19v8.28h-3.06V143.33Z" style="fill:#fff"/><path d="M433.12,161.87a4.33,4.33,0,0,1-2.2.47,2.63,2.63,0,0,1-1.89-.67,2.89,2.89,0,0,1-.7-2.18,7.33,7.33,0,0,1-2.93,2.18,10.13,10.13,0,0,1-6,.38,5.57,5.57,0,0,1-2-.9,4.3,4.3,0,0,1-1.31-1.6,5.39,5.39,0,0,1-.49-2.39,5.46,5.46,0,0,1,.54-2.59,4.69,4.69,0,0,1,1.42-1.64,6.51,6.51,0,0,1,2-1,23.84,23.84,0,0,1,2.32-.54q1.26-.25,2.39-.38a13.27,13.27,0,0,0,2-.36,3.33,3.33,0,0,0,1.37-.68,1.67,1.67,0,0,0,.5-1.31,3.06,3.06,0,0,0-.38-1.62,2.6,2.6,0,0,0-1-.94,4,4,0,0,0-1.33-.43,10.17,10.17,0,0,0-1.46-.11,6.48,6.48,0,0,0-3.24.74,3.13,3.13,0,0,0-1.4,2.79h-3.06a6.61,6.61,0,0,1,.72-2.92,5.47,5.47,0,0,1,1.73-1.93,7.26,7.26,0,0,1,2.47-1.06,13,13,0,0,1,3-.32,17.54,17.54,0,0,1,2.5.18,6.56,6.56,0,0,1,2.25.74,4.32,4.32,0,0,1,1.62,1.56,5,5,0,0,1,.61,2.62v9.56a7.14,7.14,0,0,0,.13,1.58q.13.5.85.5a3.69,3.69,0,0,0,.94-.14Zm-5-9.54a3.83,3.83,0,0,1-1.51.63q-.94.2-2,.32t-2.07.29a7.65,7.65,0,0,0-1.87.52,3.4,3.4,0,0,0-1.35,1,2.85,2.85,0,0,0-.52,1.81,2.46,2.46,0,0,0,.31,1.27,2.53,2.53,0,0,0,.79.84,3.32,3.32,0,0,0,1.13.47,6.31,6.31,0,0,0,1.37.14,7.28,7.28,0,0,0,2.59-.41,5.46,5.46,0,0,0,1.76-1,4.11,4.11,0,0,0,1-1.36,3.43,3.43,0,0,0,.32-1.38Z" style="fill:#fff"/><path d="M438.84,143.33v3h.07a6.44,6.44,0,0,1,6-3.38,8.08,8.08,0,0,1,3.06.5,5,5,0,0,1,2,1.4,5.21,5.21,0,0,1,1.06,2.14,11.51,11.51,0,0,1,.31,2.75v12.24h-3.06v-12.6a3.7,3.7,0,0,0-1-2.74,3.75,3.75,0,0,0-2.77-1,6.23,6.23,0,0,0-2.43.43,4.55,4.55,0,0,0-1.71,1.22,5.27,5.27,0,0,0-1,1.85,7.53,7.53,0,0,0-.34,2.32v10.51H436V143.33Z" style="fill:#fff"/><path d="M458.32,157.78a3.26,3.26,0,0,0,1.13,1.12,5.08,5.08,0,0,0,1.58.59,9,9,0,0,0,1.82.18,11.17,11.17,0,0,0,1.51-.11,5.54,5.54,0,0,0,1.46-.4,2.73,2.73,0,0,0,1.1-.85,2.25,2.25,0,0,0,.43-1.42,2,2,0,0,0-.9-1.8,7.64,7.64,0,0,0-2.25-1q-1.35-.38-2.93-.68a15.2,15.2,0,0,1-2.93-.86,6.06,6.06,0,0,1-2.25-1.57,4.06,4.06,0,0,1-.9-2.81,4.46,4.46,0,0,1,.63-2.41,5.15,5.15,0,0,1,1.62-1.64,7.45,7.45,0,0,1,2.23-.94,10.31,10.31,0,0,1,2.47-.31,14.73,14.73,0,0,1,2.92.27,6.75,6.75,0,0,1,2.36.94,4.85,4.85,0,0,1,1.64,1.8,6.85,6.85,0,0,1,.72,2.83h-3.06a3.11,3.11,0,0,0-.47-1.49,3.07,3.07,0,0,0-1-1,4.59,4.59,0,0,0-1.35-.52,6.93,6.93,0,0,0-1.49-.16,9.19,9.19,0,0,0-1.39.11,4.68,4.68,0,0,0-1.28.38,2.58,2.58,0,0,0-.94.72,1.81,1.81,0,0,0-.36,1.17,1.72,1.72,0,0,0,.56,1.31,4.43,4.43,0,0,0,1.42.86,12.45,12.45,0,0,0,1.94.58l2.16.49a23.24,23.24,0,0,1,2.25.61,7.35,7.35,0,0,1,1.94,1,4.66,4.66,0,0,1,1.37,1.49,4.4,4.4,0,0,1,.52,2.23,5.19,5.19,0,0,1-.7,2.81,5.48,5.48,0,0,1-1.84,1.8,7.67,7.67,0,0,1-2.56,1,15.16,15.16,0,0,1-2.83.27,13.1,13.1,0,0,1-3-.32,7.24,7.24,0,0,1-2.48-1.06,5.41,5.41,0,0,1-1.73-1.94,6.71,6.71,0,0,1-.72-2.93h3.06A3.44,3.44,0,0,0,458.32,157.78Z" style="fill:#fff"/><path d="M474.16,140v-3.74h3.06V140Zm3.06,3.35v18.61h-3.06V143.33Z" style="fill:#fff"/><path d="M489.93,143.33V146h-3.71v11.56a3.31,3.31,0,0,0,.09.86.88.88,0,0,0,.34.5,1.5,1.5,0,0,0,.7.23,10.18,10.18,0,0,0,1.17.05h1.4v2.7h-2.34a10.94,10.94,0,0,1-2-.16,3,3,0,0,1-1.37-.59,2.54,2.54,0,0,1-.77-1.22,7.07,7.07,0,0,1-.25-2.09V146H480v-2.7h3.17v-5.58h3.06v5.58Z" style="fill:#fff"/></svg>